<svg width="24" height="24" viewBox="0 0 24 24" fill="none" xmlns="http://www.w3.org/2000/svg">
<path fill-rule="evenodd" clip-rule="evenodd" d="M9.29044 4.29044C9.48966 4.09122 9.70663 4 10 4C10.2934 4 10.5103 4.09122 10.7096 4.29044C10.9088 4.48966 11 4.70663 11 5C11 5.29337 10.9088 5.51034 10.7096 5.70956C10.5103 5.90878 10.2934 6 10 6C9.70663 6 9.48966 5.90878 9.29044 5.70956C9.09122 5.51034 9 5.29337 9 5C9 4.70663 9.09122 4.48966 9.29044 4.29044ZM10 2C9.18225 2 8.45478 2.29767 7.87623 2.87623C7.54641 3.20604 7.30787 3.58426 7.16373 4H2V6H7.16373C7.30787 6.41574 7.54641 6.79396 7.87623 7.12377C8.45478 7.70233 9.18225 8 10 8C10.8177 8 11.5452 7.70233 12.1238 7.12377C12.4536 6.79396 12.6921 6.41574 12.8363 6H17.5C18.8807 6 20 7.11929 20 8.5C20 9.88071 18.8807 11 17.5 11H16.8363C16.6921 10.5843 16.4536 10.206 16.1238 9.87623C15.5452 9.29767 14.8177 9 14 9C13.1823 9 12.4548 9.29767 11.8762 9.87623C11.5464 10.206 11.3079 10.5843 11.1637 11H6.5C4.01472 11 2 13.0147 2 15.5C2 17.9853 4.01472 20 6.5 20H7.16373C7.30787 20.4157 7.54641 20.794 7.87623 21.1238C8.45478 21.7023 9.18225 22 10 22C10.8177 22 11.5452 21.7023 12.1238 21.1238C12.4536 20.794 12.6921 20.4157 12.8363 20H18.2002L16.6002 21.6L18.0002 23L22.0002 19L18.0002 15L16.5752 16.4L18.1906 18H12.8363C12.6921 17.5843 12.4536 17.206 12.1238 16.8762C11.5452 16.2977 10.8177 16 10 16C9.18225 16 8.45478 16.2977 7.87623 16.8762C7.54641 17.206 7.30787 17.5843 7.16373 18H6.5C5.11929 18 4 16.8807 4 15.5C4 14.1193 5.11929 13 6.5 13H11.1637C11.3079 13.4157 11.5464 13.794 11.8762 14.1238C12.4548 14.7023 13.1823 15 14 15C14.8177 15 15.5452 14.7023 16.1238 14.1238C16.4536 13.794 16.6921 13.4157 16.8363 13H17.5C19.9853 13 22 10.9853 22 8.5C22 6.01472 19.9853 4 17.5 4H12.8363C12.6921 3.58426 12.4536 3.20604 12.1238 2.87623C11.5452 2.29767 10.8177 2 10 2ZM14 11C13.7066 11 13.4897 11.0912 13.2904 11.2904C13.0912 11.4897 13 11.7066 13 12C13 12.2934 13.0912 12.5103 13.2904 12.7096C13.4897 12.9088 13.7066 13 14 13C14.2934 13 14.5103 12.9088 14.7096 12.7096C14.9088 12.5103 15 12.2934 15 12C15 11.7066 14.9088 11.4897 14.7096 11.2904C14.5103 11.0912 14.2934 11 14 11ZM9.29044 18.2904C9.48966 18.0912 9.70663 18 10 18C10.2934 18 10.5103 18.0912 10.7096 18.2904C10.9088 18.4897 11 18.7066 11 19C11 19.2934 10.9088 19.5103 10.7096 19.7096C10.5103 19.9088 10.2934 20 10 20C9.70663 20 9.48966 19.9088 9.29044 19.7096C9.09122 19.5103 9 19.2934 9 19C9 18.7066 9.09122 18.4897 9.29044 18.2904Z" fill="black"/>
</svg>
