<svg width="24" height="24" viewBox="0 0 24 24" fill="none" xmlns="http://www.w3.org/2000/svg">
<g id="Contacts Product Fill Streamline Rounded Fill - Material Symbols">
<path id="Vector" d="M4.6252 22C4.35853 22 4.11686 21.8916 3.9002 21.675C3.68353 21.4583 3.5752 21.2167 3.5752 20.95V18.325C3.5752 16.825 4.04186 15.5 4.9752 14.35C5.90855 13.2 7.10855 12.4666 8.5752 12.15C7.90855 12.6166 7.39185 13.2042 7.0252 13.9125C6.65855 14.6209 6.4752 15.3834 6.4752 16.2V20.95C6.4752 21.1334 6.5002 21.3167 6.5502 21.5C6.6002 21.6833 6.68355 21.85 6.8002 22H4.6252ZM8.3002 22C8.01685 22 7.77105 21.8959 7.5627 21.6875C7.35435 21.4791 7.2502 21.2334 7.2502 20.95V16.2C7.2502 15.0334 7.6627 14.0417 8.4877 13.225C9.3127 12.4084 10.3085 12 11.4752 12H16.2002C17.3668 12 18.3585 12.4084 19.1752 13.225C19.9918 14.0417 20.4002 15.0334 20.4002 16.2V17.8C20.4002 18.9666 19.9918 19.9583 19.1752 20.775C18.3585 21.5916 17.3668 22 16.2002 22H8.3002ZM12.0002 9.9C10.9002 9.9 9.96685 9.51665 9.2002 8.75C8.43355 7.98335 8.0502 7.05 8.0502 5.95C8.0502 4.85 8.43355 3.91667 9.2002 3.15C9.96685 2.38334 10.9002 2 12.0002 2C13.1002 2 14.0336 2.38334 14.8002 3.15C15.5669 3.91667 15.9502 4.85 15.9502 5.95C15.9502 7.05 15.5669 7.98335 14.8002 8.75C14.0336 9.51665 13.1002 9.9 12.0002 9.9Z" fill="black"/>
</g>
</svg>
