<svg width="16" height="16" viewBox="0 0 16 16" fill="none" xmlns="http://www.w3.org/2000/svg">
<g id="Figma Streamline Font Awesome Solid">
<path id="Vector" d="M2.54944 3.09368C2.54944 1.47347 3.86288 0.160034 5.4831 0.160034H10.5169C12.1371 0.160034 13.4505 1.47347 13.4505 3.09368C13.4505 4.1196 12.9239 5.02255 12.1262 5.54688C12.9239 6.07124 13.4505 6.97416 13.4505 8.0001C13.4505 9.62031 12.1371 10.9338 10.5169 10.9338H10.4532C9.69361 10.9338 9.00146 10.6451 8.48046 10.1715V12.8745C8.48046 14.5163 7.13268 15.84 5.4989 15.84C3.88273 15.84 2.54944 14.5306 2.54944 12.9064C2.54944 11.8805 3.07602 10.9776 3.87364 10.4533C3.07602 9.92889 2.54944 9.02597 2.54944 8.0001C2.54944 6.97416 3.07607 6.07124 3.87374 5.54688C3.07607 5.02255 2.54944 4.1196 2.54944 3.09368ZM7.51951 6.02738H5.4831C4.39359 6.02738 3.51038 6.91061 3.51038 8.0001C3.51038 9.08538 4.38678 9.96598 5.47048 9.97278C5.47468 9.97274 5.47887 9.97274 5.4831 9.97274H7.51951V6.02738ZM8.48046 8.0001C8.48046 9.08958 9.36365 9.97281 10.4532 9.97281H10.5169C11.6064 9.97281 12.4896 9.08958 12.4896 8.0001C12.4896 6.91061 11.6064 6.02739 10.5169 6.02739H10.4532C9.36366 6.02739 8.48046 6.91061 8.48046 8.0001ZM5.4831 10.9338C5.47887 10.9338 5.47468 10.9337 5.47048 10.9337C4.38678 10.9405 3.51038 11.8211 3.51038 12.9064C3.51038 13.9919 4.40539 14.8791 5.4989 14.8791C6.61004 14.8791 7.51951 13.9776 7.51951 12.8745V10.9338H5.4831ZM5.4831 1.12098C4.39359 1.12098 3.51038 2.00419 3.51038 3.09368C3.51038 4.18318 4.39359 5.06638 5.4831 5.06638H7.51951V1.12098H5.4831ZM8.48046 5.06638H10.5169C11.6064 5.06638 12.4896 4.18318 12.4896 3.09368C12.4896 2.00419 11.6064 1.12098 10.5169 1.12098H8.48046V5.06638Z" fill="black"/>
</g>
</svg>
