<svg width="24" height="24" viewBox="0 0 24 24" fill="none" xmlns="http://www.w3.org/2000/svg">
<g clip-path="url(#clip0_61_71)">
<path d="M17.9894 1.21875H6.01025C5.6133 1.21875 5.2915 1.54055 5.2915 1.9375V6.72917C5.2915 7.12612 5.6133 7.44792 6.01025 7.44792H17.9894C18.3864 7.44792 18.7082 7.12612 18.7082 6.72917V1.9375C18.7082 1.54055 18.3864 1.21875 17.9894 1.21875Z" stroke="black" stroke-linecap="round" stroke-linejoin="round"/>
<path d="M12 7.44792V18.4688" stroke="black" stroke-linecap="round" stroke-linejoin="round"/>
<path d="M3.375 18.4688V14.6354C3.375 14.2542 3.52645 13.8885 3.79603 13.6189C4.06561 13.3493 4.43126 13.1979 4.8125 13.1979H19.1875C19.5687 13.1979 19.9344 13.3493 20.204 13.6189C20.4736 13.8885 20.625 14.2542 20.625 14.6354V18.4688" stroke="black" stroke-linecap="round" stroke-linejoin="round"/>
<path d="M3.375 22.7812C4.56586 22.7812 5.53125 21.8158 5.53125 20.625C5.53125 19.4342 4.56586 18.4688 3.375 18.4688C2.18414 18.4688 1.21875 19.4342 1.21875 20.625C1.21875 21.8158 2.18414 22.7812 3.375 22.7812Z" stroke="black" stroke-linecap="round" stroke-linejoin="round"/>
<path d="M12 22.7812C13.1908 22.7812 14.1562 21.8158 14.1562 20.625C14.1562 19.4342 13.1908 18.4688 12 18.4688C10.8092 18.4688 9.84375 19.4342 9.84375 20.625C9.84375 21.8158 10.8092 22.7812 12 22.7812Z" stroke="black" stroke-linecap="round" stroke-linejoin="round"/>
<path d="M20.625 22.7812C21.8158 22.7812 22.7812 21.8158 22.7812 20.625C22.7812 19.4342 21.8158 18.4688 20.625 18.4688C19.4342 18.4688 18.4688 19.4342 18.4688 20.625C18.4688 21.8158 19.4342 22.7812 20.625 22.7812Z" stroke="black" stroke-linecap="round" stroke-linejoin="round"/>
</g>
<defs>
<clipPath id="clip0_61_71">
<rect width="24" height="24" fill="white"/>
</clipPath>
</defs>
</svg>
