<svg width="24" height="24" viewBox="0 0 24 24" fill="none" xmlns="http://www.w3.org/2000/svg">
<g id="Link Streamline Iconoir Regular">
<path id="Vector" d="M13.875 11.9977C13.875 9.66178 11.7028 7.3125 9.05357 7.3125C8.73976 7.3125 7.70535 7.31251 7.44643 7.31251C4.78363 7.31251 2.625 9.41017 2.625 11.9977C2.625 14.2275 4.22787 16.0935 6.375 16.5669C6.71959 16.643 7.07818 16.683 7.44643 16.683" stroke="black" stroke-linecap="round" stroke-linejoin="round"/>
<path id="Vector_2" d="M10.125 11.9978C10.125 14.3337 12.2972 16.683 14.9465 16.683H16.5535C19.2164 16.683 21.375 14.5854 21.375 11.9978C21.375 9.76801 19.7722 7.90205 17.625 7.4286C17.2804 7.35262 16.9218 7.3125 16.5535 7.3125" stroke="black" stroke-linecap="round" stroke-linejoin="round"/>
</g>
</svg>
