<svg width="24" height="24" viewBox="0 0 24 24" fill="none" xmlns="http://www.w3.org/2000/svg">
<g id="Media Video List Streamline Iconoir Regular">
<path id="Vector" d="M22.131 6.1597V21.4159C22.131 21.8109 21.8109 22.131 21.4159 22.131H6.1597C5.76474 22.131 5.44458 21.8109 5.44458 21.4159V6.1597C5.44458 5.76474 5.76474 5.44458 6.1597 5.44458H21.4159C21.8109 5.44458 22.131 5.76474 22.131 6.1597Z" stroke="black" stroke-linecap="round" stroke-linejoin="round"/>
<path id="Vector_2" d="M18.5554 1.8689H2.58402C2.18905 1.8689 1.8689 2.18905 1.8689 2.58402V18.5554" stroke="black" stroke-linecap="round" stroke-linejoin="round"/>
<path id="Vector_3" d="M12.4871 10.862C12.0105 10.5761 11.4041 10.9194 11.4041 11.4752V16.1005C11.4041 16.6564 12.0105 16.9996 12.4871 16.7137L16.3415 14.4011C16.8044 14.1234 16.8044 13.4523 16.3415 13.1746L12.4871 10.862Z" stroke="black" stroke-linecap="round" stroke-linejoin="round"/>
</g>
</svg>
