<svg xmlns="http://www.w3.org/2000/svg" width="24" height="24" fill="none"><path fill="#1E1E1E" d="M0 0h24v24H0z"/><g fill="#FEFEFE" clip-path="url(#a)"><path d="M9.95 14.474a.904.904 0 0 1-.639-1.544L18.241 4a3.15 3.15 0 0 0-1.506-.381H3.166A3.17 3.17 0 0 0 0 6.785v13.569a3.17 3.17 0 0 0 3.166 3.166h13.57a3.17 3.17 0 0 0 3.165-3.166V6.784a3.15 3.15 0 0 0-.381-1.505l-8.93 8.93a.9.9 0 0 1-.64.265"/><path d="M22.614 0h-6.331a.905.905 0 0 0 0 1.809h4.147l-2.19 2.19c.541.294.985.738 1.28 1.28l2.19-2.19v4.147a.905.905 0 0 0 1.809 0V.905A.905.905 0 0 0 22.614 0"/></g><defs><clipPath id="a"><path fill="#fff" d="M0 0h24v24H0z"/></clipPath></defs></svg>