<svg width="24" height="24" viewBox="0 0 24 24" fill="none" xmlns="http://www.w3.org/2000/svg">
<path fill-rule="evenodd" clip-rule="evenodd" d="M9 12C7.9 12 6.95833 11.6083 6.175 10.825C5.39167 10.0417 5 9.1 5 8C5 6.9 5.39167 5.95833 6.175 5.175C6.95833 4.39167 7.9 4 9 4C10.1 4 11.0417 4.39167 11.825 5.175C12.6083 5.95833 13 6.9 13 8C13 9.1 12.6083 10.0417 11.825 10.825C11.0417 11.6083 10.1 12 9 12ZM1 20V17.2C1 16.6333 1.14583 16.1125 1.4375 15.6375C1.72917 15.1625 2.11667 14.8 2.6 14.55C3.63333 14.0333 4.68333 13.6458 5.75 13.3875C6.81667 13.1292 7.9 13 9 13C10.0258 13 11.037 13.1123 12.0338 13.337C11.3781 14.4025 11 15.6571 11 17C11 18.0736 11.2417 19.0907 11.6736 20H1ZM22.9142 16.0001H20.5H13V14.0001H18.0858L16.7929 12.7072L18.2071 11.293L21.2071 14.293L22.9142 16.0001ZM15.5 18.0001H23V20.0001H17.9142L19.2071 21.293L17.7929 22.7072L14.7929 19.7072L13.0858 18.0001H15.5Z" fill="black"/>
</svg>
