<svg width="24" height="24" viewBox="0 0 24 24" fill="none" xmlns="http://www.w3.org/2000/svg">
<path fill-rule="evenodd" clip-rule="evenodd" d="M4.257 5.67121L5.68008 7.0943C4.81993 8.20082 4.24398 9.53923 4.06183 10.9999H2.04932C2.249 8.98872 3.04458 7.15279 4.257 5.67121ZM2.04932 12.9999H4.06183C4.55393 16.9463 7.92032 19.9999 11.9999 19.9999C16.4182 19.9999 19.9999 16.4182 19.9999 11.9999C19.9999 7.92032 16.9463 4.55393 12.9999 4.06183V2.04932C18.0533 2.55104 21.9999 6.81459 21.9999 11.9999C21.9999 17.5228 17.5228 21.9999 11.9999 21.9999C6.81459 21.9999 2.55104 18.0533 2.04932 12.9999ZM10.9999 2.04932V4.06183C9.53923 4.24398 8.20082 4.81993 7.0943 5.68008L5.67121 4.257C7.15279 3.04458 8.98872 2.249 10.9999 2.04932ZM16.5 12L9.5 7.5V16.5L16.5 12Z" fill="black"/>
</svg>
