<svg xmlns="http://www.w3.org/2000/svg" width="24" height="24" fill="none" viewBox="0 0 16 21"><path fill="#1E1E1E" d="M0 0h16v21H0z"/><g clip-path="url(#a)"><path fill="#FEFEFE" d="M-1126-1759H314V747h-1440z"/><path fill="#FEFEFE" d="M-286-88h542V56h-542z"/><path stroke="#212529" stroke-width="4" d="M-286-88h542V56h-542z"/><rect width="119" height="41" x="-74.5" y="-10" fill="#212529" rx="6.5"/><rect width="119" height="41" x="-74.5" y="-10" stroke="#212529" rx="6.5"/><path fill="#FEFEFE" d="M.5.75v19.5h15V5.7l-.225-.225-4.5-4.5L10.55.75zM2 2.25h7.5v4.5H14v12H2zm9 1.05 1.95 1.95H11zM7.25 8.25V12H5l3 3 3-3H8.75V8.25zM5 15.75v1.5h6v-1.5z"/></g><defs><clipPath id="a"><path fill="#fff" d="M-1126-1759H314V747h-1440z"/></clipPath></defs></svg>