<svg width="24" height="24" viewBox="0 0 16 21" fill="none" xmlns="http://www.w3.org/2000/svg">
<rect width="16" height="21" fill="#1E1E1E"/>
<g id="Desktop - 19" clip-path="url(#clip0_0_1)">
<rect width="1440" height="2506" transform="translate(-1126 -1759)" fill="#FEFEFE"/>
<g id="Frame 1">
<g id="Frame 137">
<rect x="-286" y="-88" width="542" height="144" fill="#FEFEFE"/>
<rect x="-286" y="-88" width="542" height="144" stroke="#212529" stroke-width="4"/>
<g id="Frame 138">
<g id="Button">
<rect x="-74.5" y="-10" width="119" height="41" rx="6.5" fill="#212529"/>
<rect x="-74.5" y="-10" width="119" height="41" rx="6.5" stroke="#212529"/>
<g id="la:file-download">
<path id="Vector" d="M0.5 0.75V20.25H15.5V5.7L15.275 5.475L10.775 0.975L10.55 0.75H0.5ZM2 2.25H9.5V6.75H14V18.75H2V2.25ZM11 3.3L12.95 5.25H11V3.3ZM7.25 8.25V12H5L8 15L11 12H8.75V8.25H7.25ZM5 15.75V17.25H11V15.75H5Z" fill="#FEFEFE"/>
</g>
</g>
</g>
</g>
</g>
</g>
<defs>
<clipPath id="clip0_0_1">
<rect width="1440" height="2506" fill="white" transform="translate(-1126 -1759)"/>
</clipPath>
</defs>
</svg>
