<svg xmlns="http://www.w3.org/2000/svg" xml:space="preserve" viewBox="0 0 1086 450"><desc>A graphics open standard API from Khronos Group</desc><g fill="#5586a4"><path d="M127.672 187c3.835-11.8 9.591-22.2 17.23-31.3 7.67-9.07 17.232-16.3 28.686-21.7s24.7-8.11 39.84-8.11c15.139 0 28.485 2.71 39.84 8.11 11.454 5.4 21.015 12.6 28.684 21.7s13.446 19.5 17.231 31.3c3.835 11.8 5.757 24 5.757 36.7s-1.922 25-5.757 36.8-9.591 22.2-17.23 31.3c-7.67 9.07-17.231 16.3-28.685 21.6-11.454 5.31-24.701 7.98-39.84 7.98s-28.486-2.66-39.84-7.98c-11.454-5.32-21.016-12.5-28.685-21.6-7.67-9.07-13.446-19.5-17.231-31.3-3.835-11.8-5.757-24-5.757-36.8s1.922-25 5.757-36.7m23.306 64.7c2.5 9.16 6.435 17.4 11.753 24.7 5.359 7.33 12.251 13.2 20.617 17.7 8.397 4.45 18.426 6.67 29.98 6.67 11.653 0 21.613-2.22 29.98-6.67 8.396-4.45 15.238-10.3 20.617-17.7 5.358-7.33 9.283-15.6 11.753-24.7 2.5-9.17 3.755-18.5 3.755-27.9s-1.255-18.7-3.755-27.9-6.435-17.4-11.753-24.7c-5.359-7.33-12.251-13.2-20.617-17.7-8.397-4.45-18.426-6.68-29.98-6.68-11.653 0-21.613 2.23-29.98 6.68-8.396 4.45-15.238 10.3-20.617 17.7-5.358 7.34-9.292 15.6-11.753 24.7-2.5 9.16-3.745 18.5-3.745 27.9s1.245 18.7 3.745 27.9M342.808 198v16.1h.402c3.287-6.61 8.446-11.4 15.438-14.4 7.042-3 14.741-4.5 23.207-4.5 9.383 0 17.53 1.69 24.502 5.07 6.962 3.38 12.749 7.94 17.33 13.7 4.612 5.76 8.088 12.4 10.458 19.9 2.35 7.52 3.526 15.5 3.526 23.9 0 8.44-1.135 16.4-3.406 24-2.271 7.52-5.707 14.1-10.359 19.7-4.611 5.6-10.358 10-17.33 13.2-6.972 3.22-15.04 4.84-24.302 4.84-2.979 0-6.295-.307-9.96-.919a57.5 57.5 0 0 1-10.956-3c-3.596-1.38-7.002-3.27-10.26-5.65-3.206-2.38-5.906-5.34-8.087-8.88h-.402v61.5h-20.12v-165zm71.413 42.3c-1.484-5.29-3.745-10-6.783-14.2-3.047-4.14-6.952-7.44-11.752-9.9-4.761-2.46-10.359-3.68-16.733-3.68-6.713 0-12.45 1.31-17.131 3.92s-8.506 6.02-11.454 10.2c-2.968 4.22-5.11 9.02-6.435 14.4a67.8 67.8 0 0 0-1.992 16.3c0 5.84.698 11.5 2.112 16.9 1.404 5.45 3.625 10.2 6.673 14.4 3.038 4.14 6.982 7.48 11.853 10 4.84 2.53 10.657 3.8 17.53 3.8 6.862 0 12.549-1.3 17.23-3.91s8.317-6.06 11.155-10.4c2.809-4.29 4.83-9.2 6.086-14.7a77.2 77.2 0 0 0 1.872-17 59.7 59.7 0 0 0-2.23-16.2zM540.016 310c-9.093 6.75-20.518 10.1-34.362 10.1-9.721 0-18.127-1.53-25.298-4.6-7.132-3.07-13.148-7.37-18.028-12.9-4.86-5.53-8.506-12.1-10.956-19.8-2.43-7.68-3.795-16-4.113-25.1 0-9.06 1.404-17.3 4.233-24.9 2.818-7.52 6.782-14 11.852-19.6 5.1-5.53 11.155-9.82 18.127-12.9 6.982-3.07 14.641-4.61 22.908-4.61 10.857 0 19.82 2.2 26.992 6.58 7.141 4.38 12.848 9.96 17.23 16.7 4.313 6.77 7.301 14.2 8.945 22.1q2.464 12 2.002 22.8h-90.935c-.158 5.21.465 10.2 1.872 14.8s3.675 8.81 6.803 12.4c3.127 3.6 7.121 6.47 11.952 8.62 4.85 2.15 10.558 3.22 17.131 3.22 8.446 0 15.339-1.92 20.717-5.76 5.398-3.84 8.954-9.68 10.657-17.5h19.72c-2.668 13.3-8.545 23.4-17.628 30.1zm-4.87-76.4c-1.793-4.13-4.214-7.7-7.261-10.7-3.048-2.98-6.644-5.36-10.757-7.12-4.143-1.76-8.715-2.65-13.745-2.65q-7.742-.001-13.944 2.65c-4.143 1.76-7.699 4.18-10.657 7.24-2.968 3.06-5.309 6.63-7.032 10.7-1.723 4.06-2.739 8.39-3.048 13h69.62c-.315-4.6-1.374-8.96-3.166-13.1zM591.808 198v18.9h.377c8.337-14.4 21.514-21.7 39.641-21.7 8.028 0 14.741 1.08 20.02 3.23 5.348 2.15 9.681 5.15 12.948 8.99 3.307 3.84 5.627 8.41 6.962 13.7 1.335 5.3 2.002 11.2 2.002 17.6v78.4h-20.12v-80.6c0-7.37-2.2-13.2-6.593-17.5-4.402-4.3-10.458-6.45-18.127-6.45-6.125 0-11.454.926-15.936 2.77-4.472 1.84-8.207 4.45-11.155 7.83-2.978 3.38-5.22 7.33-6.703 11.9-1.494 4.53-2.241 9.49-2.241 14.9v67.3h-20.12v-119zM812.92 316c-9.084 3.76-18.227 5.64-27.49 5.64-14.64 0-27.788-2.5-39.441-7.48-11.653-4.99-21.514-11.9-29.482-20.6-8.018-8.75-14.143-19-18.426-30.9-4.273-11.8-6.414-24.6-6.414-38.2q0-21 6.394-39c4.263-12 10.359-22.5 18.426-31.4 7.998-8.93 17.829-15.9 29.482-21q17.48-7.62 39.441-7.62c9.791 0 19.323 1.45 28.486 4.34 9.173 2.9 17.43 7.15 24.8 12.8 7.39 5.61 13.446 12.5 18.327 20.8 4.81 8.23 7.749 17.7 8.824 28.3h-40.039c-2.5-10.5-7.31-18.3-14.442-23.6-7.131-5.24-15.737-7.86-25.896-7.86-9.442 0-17.43 1.79-24.003 5.38s-11.952 8.41-16.036 14.4c-4.103 6.04-7.082 12.9-8.944 20.6-1.873 7.7-2.809 15.7-2.809 23.9 0 7.88.935 15.5 2.809 23 1.872 7.44 4.86 14.1 8.964 20.1 4.103 5.95 9.452 10.7 16.036 14.3 6.593 3.59 14.64 5.38 24.103 5.38 13.944 0 24.601-3.44 32.27-10.3 7.58-6.88 11.952-16.9 13.247-29.9h-42.23v-30.8h80.078v101h-26.593l-4.263-21.2c-7.48 9.44-15.737 16-24.9 19.8zM937.42 131v152h93.026v34.7h-134.46v-187z"/><path d="M739.216 341c-64.043 38.2-160.356 60-266.928 60-193.224 0-348.6-78.8-348.6-176S280.06 49 472.288 49c107.568 0 203.184 22.1 267.924 60.6-69.92-64.4-195.216-110-338.64-110-219.12-.035-397.404 101-397.404 225-.019 124 178.284 225 397.404 225 142.428.024 267.924-45.1 337.644-109z"/></g><path fill="#5586a4" d="M1084 300c0 3.14-.786 6.07-2.36 8.78s-3.71 4.85-6.42 6.41-5.64 2.34-8.78 2.34c-3.13 0-6.04-.781-8.76-2.34-2.71-1.56-4.85-3.7-6.42-6.41a17.23 17.23 0 0 1-2.36-8.78c0-3.13.784-6.05 2.36-8.77q2.355-4.08 6.42-6.42t8.76-2.34c3.14 0 6.07.781 8.78 2.34q4.065 2.34 6.42 6.42c1.57 2.72 2.36 5.64 2.36 8.77m-3.4 0c0-3.91-1.38-7.24-4.15-10-2.77-2.77-6.1-4.15-10-4.15-3.91 0-7.24 1.38-10 4.15-2.77 2.77-4.15 6.1-4.15 10s1.38 7.24 4.15 10c2.77 2.77 6.1 4.15 10 4.15 3.91 0 7.24-1.38 10-4.15s4.15-6.1 4.15-10m-22.1-9.38h8.39c2.37 0 4.1.478 5.16 1.44 1.06.957 1.6 2.24 1.6 3.85 0 1.26-.406 2.34-1.22 3.26-.812.919-2.09 1.59-3.84 2q1.08.414 1.59.873c.475.43.973 1.06 1.49 1.91q.045.093 3.03 5.42h-5.52c-1.79-3.57-3-5.7-3.61-6.4-.614-.696-1.23-1.05-1.84-1.05q-.207 0-.574.069v7.38h-4.67zm4.67 7.95h2.02q2.025 0 2.85-.654.827-.656.827-1.69a2.1 2.1 0 0 0-.793-1.69q-.794-.655-2.7-.654h-2.21z"/></svg>