<svg xmlns="http://www.w3.org/2000/svg" xml:space="preserve" viewBox="0 0 531.63 645.62"><path d="M162.83 172.88c1.54-.41 3.14-.6 4.73-.54 8.87.31 15.81 7.75 15.5 16.62v97.6c0 9.94-6.38 12.1-12.27 11.99-4-.28-7.95-1.02-11.78-2.21a132.87 132.87 0 0 0 105.08 53.9l35.98-36.19 21.32 23.98c53.12-25.1 69.79-71.45 73.54-89.51-19.43 19.99-40.92 40.11-55.43 26.17 0 0-.79-74.5-.79-105.05 0-41.04 39-71.69 39-71.69-21.43 3.81-47.16 11.41-74.42 38.19a99 99 0 0 0-7.01 7.72c-11.73-8.94-26.89-6.28-26.89-6.28 8.19 4.48 16.38 17.6 16.38 28.46v106.73s-17.87 15.72-31.65 15.72c-6.31.06-12.25-2.94-15.95-8.05a20.8 20.8 0 0 1-2.66-4.65V144c-4.08 3.36-17.83 6.05-17.83-16.72 0-14.2 10.23-31.13 28.42-41.49-18.41 2.85-42.65 10.13-67.46 31.15a132.24 132.24 0 0 0-45.78 101.35c-.01-.01 13.32-41.6 29.97-45.41"/><path d="M265.83 434.56c120-.01 217.28-97.29 217.27-217.29C483.1 97.27 385.82 0 265.83 0h-.03C145.8.01 48.53 97.29 48.54 217.29c0 120.01 97.29 217.28 217.29 217.27m-.05-425.89c115.2-.01 208.6 93.38 208.61 208.58v.01c0 115.2-93.38 208.59-208.58 208.59-115.21.02-208.61-93.37-208.61-208.57-.01-115.2 93.37-208.6 208.58-208.61M60.9 540c0 12.2-6.7 20.1-20.2 20.1s-20.3-7.9-20.3-20.1v-35.4H0v37c0 21.3 14.6 35.3 40.7 35.3s40.6-14 40.6-35.3v-37H60.9zM177.66 504.6h-19.7v42.8l-41.5-42.8h-21.6v70h19.7v-46l45.2 46h17.9zM273.1 528.5c0-16-13.9-23.9-31.8-23.9h-49.1v70h20.3v-22.1h20.6l18.5 22.1h23.7l-20.6-23.8c11-3.2 18.4-10.6 18.4-22.3m-33.3 9.2h-27.4v-17.6h27.4c7.3 0 12.6 2 12.6 8.8s-5.3 8.8-12.6 8.8M358.62 559h-54.61v-12.4h44.11v-14.9h-44.11v-11.5h53.51v-15.6h-73.61v70h74.71zM399.32 504.6l-36.2 70h21.4l6.6-13.4h38.4l6.6 13.4h21.7l-36.2-70zm-1.2 42.1 12.2-24.8 12.1 24.8zM484.53 558.2v-53.6h-20.4v70h67.5v-16.4zM118.93 625.63h29.11v-9.84h-29.11v-7.59h35.31v-10.29h-48.57v46.19h49.29v-10.29h-36.03zM204.12 626.15l-27.39-28.24h-14.25v46.19h13v-30.35l29.83 30.35h11.81v-46.19h-13zM253.48 626.81h15.31v4.16c-3.23 2.97-7.72 4.09-13.4 4.09-11.22 0-17.55-4.95-17.55-14.06 0-9.04 6.14-13.99 17.36-13.99 6.2 0 10.36 1.58 14.32 5.15l9.83-7.26c-4.82-4.49-13.07-8.51-24.48-8.51-18.94 0-30.69 8.98-30.69 24.62s11.75 24.62 30.69 24.62c12.34 0 21.45-4.09 26.4-10.23v-18.02h-27.78v9.43zM289.3 597.91h13.46v46.2H289.3zM353.97 626.15l-27.39-28.24h-14.25v46.19h13v-30.35l29.83 30.35h11.81v-46.19h-13zM389.94 625.63h29.1v-9.84h-29.1v-7.59h35.3v-10.29h-48.57v46.19h49.3v-10.29h-36.03z"/></svg>